<?xml version="1.0" encoding="UTF-8" standalone="no"?>
<!-- Created with Inkscape (http://www.inkscape.org/) -->

<svg
   width="200"
   height="162"
   viewBox="0 0 52.916666 42.862499"
   version="1.1"
   id="svg10013"
   xmlns="http://www.w3.org/2000/svg"
   xmlns:svg="http://www.w3.org/2000/svg"
   xmlns:rdf="http://www.w3.org/1999/02/22-rdf-syntax-ns#"
   xmlns:cc="http://creativecommons.org/ns#"
   xmlns:dc="http://purl.org/dc/elements/1.1/">
  <defs
     id="defs10010">
    <marker
       id="marker6028"
       refX="5"
       refY="3"
       orient="auto-start-reverse">
      <path
         style="fill:context-stroke"
         d="M 10,3 0,6 V 0 Z"
         id="path6026" />
    </marker>
    <marker
       id="ExperimentalArrow"
       refX="5"
       refY="3"
       orient="auto-start-reverse">
      <path
         style="fill:context-stroke"
         d="M 10,3 0,6 V 0 Z"
         id="path5483" />
    </marker>
    <marker
       style="overflow:visible"
       id="Arrow2Send"
       refX="0"
       refY="0"
       orient="auto">
      <path
         transform="matrix(-0.3,0,0,-0.3,0.69,0)"
         d="M 8.7185878,4.0337352 -2.2072895,0.01601326 8.7185884,-4.0017078 c -1.7454984,2.3720609 -1.7354408,5.6174519 -6e-7,8.035443 z"
         style="fill:context-stroke;fill-rule:evenodd;stroke:context-stroke;stroke-width:0.625;stroke-linejoin:round"
         id="path5263" />
    </marker>
    <marker
       style="overflow:visible"
       id="TriangleInL"
       refX="0"
       refY="0"
       orient="auto">
      <path
         transform="scale(-0.8)"
         style="fill:context-stroke;fill-rule:evenodd;stroke:context-stroke;stroke-width:1pt"
         d="M 5.77,0 -2.88,5 V -5 Z"
         id="path5363" />
    </marker>
    <marker
       style="overflow:visible"
       id="marker5633"
       refX="0"
       refY="0"
       orient="auto">
      <path
         transform="scale(0.8)"
         style="fill:context-stroke;fill-rule:evenodd;stroke:context-stroke;stroke-width:1pt"
         d="M 5.77,0 -2.88,5 V -5 Z"
         id="path5631" />
    </marker>
    <marker
       style="overflow:visible"
       id="TriangleOutL"
       refX="0"
       refY="0"
       orient="auto">
      <path
         transform="scale(0.8)"
         style="fill:context-stroke;fill-rule:evenodd;stroke:context-stroke;stroke-width:1pt"
         d="M 5.77,0 -2.88,5 V -5 Z"
         id="path5372" />
    </marker>
    <linearGradient
       id="linearGradient12400">
      <stop
         style="stop-color:#000000;stop-opacity:1;"
         offset="0"
         id="stop12398" />
    </linearGradient>
    <linearGradient
       id="linearGradient12376">
      <stop
         style="stop-color:#00ff00;stop-opacity:1;"
         offset="0"
         id="stop12374" />
    </linearGradient>
    <marker
       style="overflow:visible"
       id="Arrow1Mend"
       refX="0"
       refY="0"
       orient="auto">
      <path
         transform="matrix(-0.4,0,0,-0.4,-4,0)"
         style="fill:context-stroke;fill-rule:evenodd;stroke:context-stroke;stroke-width:1pt"
         d="M 0,0 5,-5 -12.5,0 5,5 Z"
         id="path10681" />
    </marker>
    <marker
       style="overflow:visible"
       id="marker12340"
       refX="0"
       refY="0"
       orient="auto">
      <path
         transform="matrix(1.1,0,0,1.1,1.1,0)"
         d="M 8.7185878,4.0337352 -2.2072895,0.01601326 8.7185884,-4.0017078 c -1.7454984,2.3720609 -1.7354408,5.6174519 -6e-7,8.035443 z"
         style="fill:context-stroke;fill-rule:evenodd;stroke:context-stroke;stroke-width:0.625;stroke-linejoin:round"
         id="path12338" />
    </marker>
    <marker
       style="overflow:visible"
       id="Arrow2Mstart"
       refX="0"
       refY="0"
       orient="auto">
      <path
         transform="scale(0.6)"
         d="M 8.7185878,4.0337352 -2.2072895,0.01601326 8.7185884,-4.0017078 c -1.7454984,2.3720609 -1.7354408,5.6174519 -6e-7,8.035443 z"
         style="fill:context-stroke;fill-rule:evenodd;stroke:context-stroke;stroke-width:0.625;stroke-linejoin:round"
         id="path10696" />
    </marker>
    <marker
       style="overflow:visible"
       id="Arrow2Lstart"
       refX="0"
       refY="0"
       orient="auto">
      <path
         transform="matrix(1.1,0,0,1.1,1.1,0)"
         d="M 8.7185878,4.0337352 -2.2072895,0.01601326 8.7185884,-4.0017078 c -1.7454984,2.3720609 -1.7354408,5.6174519 -6e-7,8.035443 z"
         style="fill:context-stroke;fill-rule:evenodd;stroke:context-stroke;stroke-width:0.625;stroke-linejoin:round"
         id="path10690" />
    </marker>
    <marker
       style="overflow:visible"
       id="Arrow2Lend"
       refX="0"
       refY="0"
       orient="auto">
      <path
         transform="matrix(-1.1,0,0,-1.1,-1.1,0)"
         d="M 8.7185878,4.0337352 -2.2072895,0.01601326 8.7185884,-4.0017078 c -1.7454984,2.3720609 -1.7354408,5.6174519 -6e-7,8.035443 z"
         style="fill:context-stroke;fill-rule:evenodd;stroke:context-stroke;stroke-width:0.625;stroke-linejoin:round"
         id="path10693" />
    </marker>
  </defs>
  <path
     style="fill:none;stroke:#72777d;stroke-width:0.529167;stroke-linecap:butt;stroke-linejoin:miter;stroke-miterlimit:2;stroke-dasharray:none;stroke-opacity:1;paint-order:markers stroke fill"
     d="m 5.5563549,11.89139 v 11.465802 10.618174 a 1,1 45 0 0 1,1 H 44.979166"
     id="path10506" />
  <path
     style="fill:none;stroke:#c8ccd1;stroke-width:0.529167;stroke-linecap:butt;stroke-linejoin:miter;stroke-miterlimit:3.33333;stroke-dasharray:none;stroke-opacity:1"
     d="m 11.244791,24.077082 c 0,0 5.357109,-8.396208 10.583334,-9.260417 4.030151,-0.666426 6.552136,6.613192 10.583333,5.953125 C 37.601092,19.920041 42.994791,9.524999 42.994791,9.524999"
     id="path10510" />
  <ellipse
     style="fill:#ffffff;fill-opacity:1;stroke:#6c7378;stroke-width:0.552668;stroke-linejoin:round;stroke-miterlimit:3.33333;stroke-dasharray:none;stroke-opacity:1;paint-order:fill markers stroke"
     id="path11260"
     cx="32.411457"
     cy="20.769791"
     rx="1.0465831"
     ry="1.0465828" />
  <ellipse
     style="fill:#ffffff;fill-opacity:1;stroke:#72777d;stroke-width:0.552668;stroke-linejoin:round;stroke-miterlimit:3.33333;stroke-dasharray:none;stroke-opacity:1;paint-order:fill markers stroke"
     id="circle12764"
     cx="11.244792"
     cy="24.077084"
     rx="1.0465831"
     ry="1.0465828" />
  <ellipse
     style="fill:#ffffff;fill-opacity:1;stroke:#72777d;stroke-width:0.552668;stroke-linejoin:round;stroke-miterlimit:3.33333;stroke-dasharray:none;stroke-opacity:1;paint-order:fill markers stroke"
     id="circle12766"
     cx="42.994789"
     cy="9.5249987"
     rx="1.0465831"
     ry="1.0465828" />
  <ellipse
     style="fill:#ffffff;fill-opacity:1;stroke:#72777d;stroke-width:0.552668;stroke-linejoin:round;stroke-miterlimit:3.33333;stroke-dasharray:none;stroke-opacity:1;paint-order:fill markers stroke"
     id="circle12768"
     cx="21.828125"
     cy="14.862281"
     rx="1.0465831"
     ry="1.0465828" />
  <path
     style="fill:#72777d;fill-opacity:1;stroke:#72777d;stroke-width:0;stroke-linecap:butt;stroke-linejoin:bevel;stroke-miterlimit:2;stroke-dasharray:none;stroke-opacity:1"
     d="m 4.2333335,11.906249 h 2.645833 L 5.5562495,6.6145827 Z"
     id="path8545" />
  <path
     style="fill:#72777d;fill-opacity:1;stroke:#000000;stroke-width:0;stroke-linecap:butt;stroke-linejoin:bevel;stroke-miterlimit:4;stroke-dasharray:none;stroke-opacity:1"
     d="m 44.979166,33.602082 v 2.645834 l 5.291667,-1.322917 z"
     id="path8717" />
  <metadata
     id="metadata13139">
    <rdf:RDF>
      <cc:Work
         rdf:about="">
        <cc:license
           rdf:resource="http://creativecommons.org/publicdomain/zero/1.0/" />
        <dc:creator>
          <cc:Agent>
            <dc:title>pietrasagh</dc:title>
          </cc:Agent>
        </dc:creator>
      </cc:Work>
      <cc:License
         rdf:about="http://creativecommons.org/publicdomain/zero/1.0/">
        <cc:permits
           rdf:resource="http://creativecommons.org/ns#Reproduction" />
        <cc:permits
           rdf:resource="http://creativecommons.org/ns#Distribution" />
        <cc:permits
           rdf:resource="http://creativecommons.org/ns#DerivativeWorks" />
      </cc:License>
    </rdf:RDF>
  </metadata>
  <path
     id="rect17017"
     style="fill:#a2a9b1;stroke:#a2a9b1;stroke-width:0.552308;stroke-linecap:round;stroke-miterlimit:2;paint-order:markers fill stroke"
     d="m 19.520832,18.785415 h 4.352893 a 1,1 45 0 1 1,1 l 0,10.967477 a 1,1 135 0 1 -1,1 h -4.352893 a 1,1 45 0 1 -1,-1 V 19.785415 a 1,1 135 0 1 1,-1 z" />
  <path
     id="rect16851"
     style="fill:#a2a9b1;stroke:#a2a9b1;stroke-width:0.529167;stroke-linecap:round;stroke-miterlimit:2;stroke-dasharray:none;paint-order:markers fill stroke"
     d="m 9.1991892,26.984605 h 4.0912048 a 1,1 45 0 1 1,1 v 2.768288 a 1,1 135 0 1 -1,1 H 9.1991892 a 1,1 45 0 1 -1,-1 v -2.768288 a 1,1 135 0 1 1,-1 z" />
  <path
     id="rect17019"
     style="fill:#a2a9b1;stroke:#a2a9b1;stroke-width:0.483378;stroke-linecap:round;stroke-miterlimit:2;paint-order:markers fill stroke"
     d="m 30.104166,24.077081 h 4.352892 a 1,1 45 0 1 1,1 v 5.675811 a 1,1 135 0 1 -1,1 l -4.352892,0 a 1,1 45 0 1 -1,-1 l 0,-5.675811 a 1,1 135 0 1 1,-1 z" />
  <path
     id="rect17021"
     style="fill:#a2a9b1;stroke:#a2a9b1;stroke-width:0.523378;stroke-linecap:round;stroke-miterlimit:2;paint-order:markers fill stroke"
     d="m 40.6875,17.462499 h 4.35289 a 1,1 45 0 1 1,1 v 12.290394 a 1,1 135 0 1 -1,1 H 40.6875 a 1,1 45 0 1 -1,-1 V 18.462499 a 1,1 135 0 1 1,-1 z" />
</svg>
